<?xml version="1.0" encoding="utf-8"?>
<!-- Generator: Adobe Illustrator 16.0.0, SVG Export Plug-In . SVG Version: 6.00 Build 0)  -->
<!DOCTYPE svg PUBLIC "-//W3C//DTD SVG 1.1//EN" "http://www.w3.org/Graphics/SVG/1.1/DTD/svg11.dtd">
<svg version="1.1" id="图层_1" xmlns="http://www.w3.org/2000/svg" xmlns:xlink="http://www.w3.org/1999/xlink" x="0px" y="0px"
	 width="131.686px" height="37.016px" viewBox="0 0 131.686 37.016" enable-background="new 0 0 131.686 37.016"
	 xml:space="preserve">
<g>
	<path fill="#33AD37" d="M30.534,25.035c-0.103,0-0.183,0-0.267,0c-0.963,0-1.926-0.029-2.888,0.015
		c-0.439,0.021-0.651-0.206-0.834-0.514c-0.291-0.49-0.56-0.987-0.841-1.48c-0.391-0.688-0.784-1.376-1.183-2.064
		c-0.062-0.104-0.151-0.188-0.186-0.319c-0.032-0.117-0.108-0.027-0.139,0.019c-0.117,0.18-0.24,0.363-0.339,0.555
		c-0.184,0.37-0.412,0.716-0.618,1.072c-0.14,0.239-0.276,0.479-0.415,0.721c-0.199,0.351-0.391,0.707-0.602,1.051
		c-0.125,0.205-0.246,0.409-0.356,0.621c-0.099,0.193-0.225,0.336-0.492,0.335c-1.592-0.013-3.182-0.013-4.771,0
		c-0.229,0.001-0.372-0.106-0.446-0.267c-0.179-0.382-0.406-0.736-0.612-1.101c-0.173-0.306-0.352-0.608-0.529-0.913
		c-0.231-0.394-0.458-0.788-0.688-1.182c-0.193-0.332-0.385-0.662-0.583-1.005c-0.121,0.043-0.105,0.183-0.162,0.273
		c-0.354,0.574-0.693,1.158-1.02,1.749c-0.381,0.683-0.804,1.344-1.172,2.032c-0.17,0.317-0.384,0.414-0.724,0.412
		C9.324,25.03,7.98,25.04,6.634,25.039c-0.278,0-0.402-0.163-0.443-0.432c-0.059-0.403,0.171-0.687,0.342-0.995
		c0.265-0.474,0.536-0.942,0.806-1.411c0.145-0.256,0.326-0.497,0.457-0.761c0.131-0.265,0.302-0.503,0.436-0.768
		c0.131-0.252,0.302-0.482,0.43-0.736c0.254-0.502,0.558-0.977,0.835-1.466c0.166-0.293,0.356-0.579,0.532-0.87
		c0.224-0.372,0.419-0.759,0.643-1.132c0.196-0.33,0.402-0.654,0.585-0.986c0.289-0.515,0.588-1.022,0.874-1.539
		c0.344-0.627,0.721-1.235,1.081-1.851c0.172-0.293,0.458-0.232,0.718-0.222c0.18,0.008,0.247,0.169,0.341,0.302
		c0.318,0.453,0.542,0.963,0.844,1.429c0.222,0.344,0.396,0.722,0.602,1.079c0.198,0.344,0.424,0.674,0.609,1.024
		c0.197,0.377,0.45,0.723,0.635,1.108c0.18,0.374,0.414,0.716,0.624,1.073c0.229,0.386,0.461,0.77,0.694,1.154
		c0.238,0.398,0.473,0.795,0.721,1.213c0.325-0.558,0.628-1.11,0.958-1.643c0.213-0.345,0.452-0.674,0.63-1.038
		c0.192-0.39,0.441-0.75,0.643-1.139c0.175-0.333,0.39-0.648,0.578-0.975c0.194-0.344,0.397-0.688,0.606-1.026
		c0.227-0.368,0.406-0.766,0.641-1.128c0.276-0.424,0.442-0.915,0.802-1.284c0.272-0.275,0.744-0.217,0.939,0.117
		c0.294,0.497,0.595,0.992,0.883,1.492c0.338,0.591,0.651,1.199,1.008,1.78c0.292,0.475,0.575,0.958,0.855,1.438
		c0.268,0.46,0.533,0.926,0.793,1.39c0.298,0.538,0.615,1.063,0.928,1.593c0.292,0.498,0.573,1.007,0.885,1.492
		c0.067,0.103,0.142,0.084,0.224,0.084c1.121,0.002,2.241,0.001,3.361,0.001c0.775,0,1.553,0,2.327,0c0.276,0,0.425,0.159,0.43,0.44
		c0.008,0.422-0.08,0.828-0.178,1.236c-0.118,0.503-0.291,0.988-0.416,1.491c-0.051,0.199-0.138,0.397-0.219,0.59
		c-0.234,0.569-0.458,1.145-0.737,1.692c-0.181,0.359-0.374,0.717-0.582,1.065c-0.271,0.453-0.574,0.886-0.84,1.344
		c-0.092,0.151-0.228,0.283-0.334,0.434c-0.395,0.57-0.896,1.047-1.356,1.561c-0.334,0.371-0.705,0.696-1.066,1.037
		c-0.39,0.367-0.794,0.718-1.225,1.044c-0.604,0.452-1.227,0.874-1.874,1.259c-0.434,0.258-0.879,0.492-1.34,0.709
		c-0.613,0.287-1.234,0.545-1.875,0.768c-0.558,0.191-1.122,0.348-1.698,0.482c-0.684,0.162-1.373,0.264-2.071,0.363
		c-0.83,0.12-1.659,0.058-2.491,0.078c-0.411,0.011-0.82,0.019-1.23-0.001c-0.735-0.034-1.458-0.138-2.18-0.273
		c-0.762-0.141-1.506-0.338-2.239-0.574c-0.549-0.177-1.085-0.383-1.609-0.618c-0.338-0.151-0.686-0.282-1.004-0.464
		c-0.479-0.272-0.966-0.534-1.426-0.841c-0.328-0.218-0.664-0.427-0.975-0.668c-0.386-0.302-0.8-0.573-1.15-0.925
		c-0.294-0.293-0.62-0.55-0.917-0.839c-0.278-0.267-0.533-0.559-0.801-0.837C4.392,30.68,4.11,30.41,3.883,30.094
		c-0.423-0.586-0.855-1.171-1.235-1.789c-0.381-0.61-0.726-1.238-1.031-1.884c-0.226-0.476-0.427-0.966-0.598-1.469
		c-0.179-0.516-0.345-1.033-0.476-1.56c-0.174-0.694-0.3-1.395-0.406-2.104c-0.219-1.462-0.11-2.927-0.103-4.387
		c0.003-0.644,0.125-1.295,0.257-1.935c0.081-0.386,0.172-0.768,0.267-1.148c0.168-0.654,0.374-1.296,0.621-1.925
		c0.201-0.506,0.41-1.009,0.654-1.492c0.183-0.358,0.373-0.716,0.582-1.065c0.272-0.453,0.573-0.886,0.84-1.339
		C3.348,7.842,3.484,7.711,3.59,7.56c0.415-0.592,0.936-1.091,1.42-1.62c0.495-0.537,1.044-1.013,1.575-1.503
		c0.401-0.37,0.857-0.681,1.309-0.997c0.4-0.282,0.813-0.545,1.234-0.792c0.422-0.25,0.858-0.478,1.306-0.689
		c0.625-0.297,1.262-0.558,1.915-0.784c0.53-0.184,1.067-0.338,1.613-0.464c0.705-0.161,1.417-0.28,2.136-0.367
		c1.337-0.163,2.679-0.082,4.015-0.061c0.639,0.01,1.29,0.142,1.93,0.268c0.762,0.148,1.5,0.355,2.243,0.57
		c0.521,0.149,1.023,0.363,1.517,0.587c0.481,0.22,0.962,0.447,1.426,0.703c0.546,0.301,1.072,0.642,1.592,0.994
		c0.846,0.576,1.614,1.231,2.342,1.945c0.606,0.593,1.216,1.18,1.739,1.846c0.438,0.56,0.865,1.133,1.211,1.756
		c0.157,0.276,0.376,0.522,0.502,0.811c0.185,0.425,0.427,0.82,0.604,1.25c0.134,0.331,0.27,0.658,0.418,0.981
		c0.112,0.251,0.06,0.587-0.134,0.747c-0.168,0.138-0.372,0.069-0.556,0.053c-0.083-0.007-0.173-0.026-0.26-0.026
		c-1.009-0.001-2.014,0-3.023-0.002c-0.208,0-0.41,0.06-0.618,0.05c-0.207-0.009-0.322-0.14-0.373-0.295
		c-0.109-0.35-0.312-0.649-0.489-0.963c-0.197-0.358-0.418-0.708-0.671-1.029c-0.277-0.356-0.513-0.749-0.858-1.049
		c-0.183-0.16-0.28-0.389-0.46-0.558c-0.871-0.827-1.813-1.553-2.854-2.163c-0.418-0.245-0.848-0.478-1.291-0.672
		c-0.349-0.153-0.707-0.29-1.062-0.426c-0.304-0.118-0.619-0.21-0.927-0.317c-0.402-0.142-0.834-0.189-1.253-0.285
		c-0.43-0.1-0.872-0.119-1.306-0.179c-0.418-0.058-0.837-0.11-1.257-0.086c-0.522,0.028-1.038,0.107-1.556,0.159
		c-0.462,0.046-0.91,0.151-1.357,0.248c-0.525,0.114-1.031,0.29-1.54,0.465c-1.12,0.39-2.151,0.935-3.135,1.585
		c-0.559,0.368-1.077,0.785-1.58,1.224C8.882,8.639,8.684,8.8,8.524,8.992C8.197,9.381,7.854,9.756,7.54,10.16
		c-0.292,0.372-0.553,0.765-0.799,1.162c-0.288,0.463-0.563,0.938-0.781,1.447c-0.14,0.323-0.294,0.646-0.427,0.974
		c-0.188,0.464-0.326,0.944-0.463,1.426c-0.131,0.443-0.189,0.896-0.307,1.34c-0.077,0.285-0.077,0.58-0.116,0.868
		c-0.065,0.466-0.13,0.94-0.097,1.414c0.032,0.497,0.099,0.993,0.152,1.488c0.059,0.536,0.176,1.054,0.297,1.572
		c0.177,0.755,0.444,1.486,0.75,2.203c0.221,0.527,0.474,1.04,0.764,1.527c0.438,0.735,0.925,1.442,1.48,2.098
		c0.538,0.626,1.127,1.186,1.78,1.692c0.599,0.464,1.223,0.88,1.873,1.26c0.397,0.233,0.826,0.413,1.242,0.613
		c0.582,0.278,1.183,0.487,1.793,0.664c0.626,0.182,1.265,0.345,1.928,0.397c0.465,0.038,0.93,0.125,1.396,0.17
		c0.453,0.042,0.904-0.021,1.354-0.057c0.271-0.02,0.537-0.101,0.804-0.111c0.283-0.009,0.547-0.094,0.822-0.138
		c0.564-0.088,1.107-0.251,1.646-0.423c0.549-0.179,1.081-0.415,1.609-0.654c0.895-0.403,1.722-0.921,2.505-1.498
		c0.584-0.434,1.165-0.892,1.646-1.448c0.367-0.422,0.748-0.842,1.061-1.302C29.828,26.266,30.244,25.71,30.534,25.035z"/>
</g>
<g>
	<path fill="#33AD37" d="M66.902,15.408h-3.844c-0.538,2.294-1.163,4.278-1.876,5.952s-1.627,3.142-2.743,4.402
		c1.364,0.682,2.712,1.375,4.045,2.077s2.589,1.374,3.767,2.015c0.311,0.166,0.48,0.43,0.512,0.791s-0.042,0.743-0.217,1.146
		c-0.176,0.403-0.414,0.775-0.713,1.116c-0.3,0.341-0.626,0.589-0.977,0.744c-0.352,0.154-0.672,0.14-0.961-0.047
		c-1.364-0.806-2.811-1.638-4.34-2.495c-1.529-0.857-3.028-1.679-4.495-2.465c-1.488,0.972-3.266,1.86-5.332,2.666
		c-2.067,0.806-4.547,1.633-7.44,2.48c-0.331,0.103-0.656,0.051-0.976-0.155c-0.321-0.207-0.615-0.501-0.884-0.884
		s-0.465-0.774-0.589-1.178s-0.15-0.765-0.078-1.085c0.072-0.32,0.284-0.521,0.636-0.604c2.19-0.559,4.127-1.121,5.813-1.689
		c1.684-0.568,3.177-1.193,4.479-1.876c-0.765-0.392-1.437-0.729-2.015-1.007c-0.579-0.279-1.023-0.491-1.333-0.636
		c-1.116-0.496-1.917-0.992-2.402-1.488c-0.486-0.496-0.708-1.09-0.667-1.782c0.041-0.692,0.31-1.586,0.806-2.682l1.457-3.317H40.8
		c-0.393,0-0.688-0.201-0.883-0.604c-0.197-0.403-0.295-0.868-0.295-1.395s0.098-0.992,0.295-1.395
		c0.196-0.403,0.491-0.604,0.883-0.604h7.254c0.517-1.591,0.971-3.286,1.364-5.084c0.062-0.331,0.258-0.574,0.589-0.729
		c0.33-0.155,0.713-0.237,1.147-0.248c0.434-0.01,0.857,0.042,1.271,0.155c0.413,0.114,0.739,0.285,0.977,0.512
		c0.237,0.228,0.315,0.507,0.232,0.837c-0.166,0.703-0.356,1.441-0.573,2.216c-0.217,0.775-0.46,1.556-0.729,2.341h14.57
		c0.393,0,0.687,0.202,0.884,0.604c0.196,0.403,0.294,0.868,0.294,1.395s-0.098,0.992-0.294,1.395
		C67.588,15.207,67.294,15.408,66.902,15.408z M49.418,21.36c1.322,0.579,2.986,1.364,4.991,2.356
		c1.075-1.055,1.958-2.248,2.65-3.581s1.276-2.908,1.752-4.728h-7.812c-0.372,1.014-0.729,1.948-1.07,2.806
		c-0.341,0.858-0.646,1.576-0.915,2.154c-0.166,0.353-0.228,0.563-0.186,0.636C48.87,21.077,49.066,21.195,49.418,21.36z"/>
	<path fill="#33AD37" d="M93.004,28.521c-0.352-0.413-0.78-0.868-1.286-1.364c-0.507-0.496-1.05-1.012-1.628-1.55
		c-0.414,0.724-0.925,1.4-1.534,2.03c-0.61,0.631-1.328,1.276-2.155,1.938c-0.228,0.166-0.485,0.202-0.774,0.109
		c-0.29-0.094-0.568-0.253-0.837-0.481v3.565c0,0.33-0.171,0.578-0.512,0.744c-0.341,0.165-0.733,0.248-1.178,0.248
		c-0.445,0-0.837-0.083-1.179-0.248c-0.341-0.166-0.511-0.414-0.511-0.744v-2.449c-0.29,0.372-0.626,0.651-1.008,0.837
		c-0.383,0.187-0.708,0.135-0.977-0.154l-2.139-2.17c-0.496,0.724-1.065,1.452-1.705,2.185c-0.641,0.733-1.364,1.504-2.17,2.31
		c-0.248,0.269-0.569,0.331-0.961,0.187c-0.394-0.145-0.76-0.393-1.101-0.744s-0.574-0.729-0.698-1.132
		c-0.123-0.402-0.041-0.729,0.248-0.977c0.785-0.702,1.499-1.404,2.14-2.107c0.64-0.702,1.209-1.457,1.705-2.263l-0.496-0.496
		c-0.703-0.62-1.251-1.121-1.644-1.504c-0.393-0.382-0.65-0.76-0.774-1.132s-0.155-0.831-0.093-1.379
		c0.062-0.548,0.186-1.276,0.371-2.186c0.187-0.95,0.357-1.854,0.512-2.713c0.155-0.857,0.295-1.71,0.419-2.557h-1.147
		c-0.352,0-0.615-0.181-0.79-0.542c-0.176-0.361-0.264-0.78-0.264-1.256c0-0.475,0.088-0.894,0.264-1.255
		c0.175-0.361,0.438-0.542,0.79-0.542h1.581c0.063-0.661,0.124-1.338,0.187-2.03c0.062-0.692,0.113-1.4,0.154-2.124
		c0.021-0.351,0.212-0.604,0.574-0.76c0.361-0.155,0.77-0.222,1.225-0.201c0.454,0.021,0.847,0.124,1.178,0.31
		c0.33,0.186,0.485,0.445,0.465,0.775c-0.042,0.6-0.088,1.24-0.14,1.922s-0.129,1.385-0.232,2.108h2.294
		c0.724,0,1.245,0.155,1.565,0.465c0.32,0.31,0.517,0.698,0.589,1.163c0.072,0.465,0.083,0.941,0.031,1.426
		c-0.052,0.486-0.099,0.904-0.14,1.255c-0.207,2.232-0.455,4.18-0.744,5.843c-0.289,1.664-0.744,3.22-1.363,4.666l2.294,2.17v-6.324
		c0-0.93,0.093-1.643,0.278-2.139c0.187-0.496,0.522-0.842,1.008-1.039c0.485-0.196,1.183-0.294,2.093-0.294h3.286v-1.644h-1.86
		c-0.951,0-1.685-0.088-2.201-0.264c-0.517-0.175-0.873-0.496-1.069-0.96c-0.196-0.465-0.295-1.132-0.295-2v-3.038
		c0-0.868,0.099-1.535,0.295-2s0.553-0.785,1.069-0.961c0.517-0.175,1.25-0.264,2.201-0.264h7.006c0.95,0,1.679,0.088,2.186,0.264
		c0.506,0.176,0.857,0.496,1.054,0.961s0.295,1.131,0.295,2v3.038c0,0.868-0.088,1.534-0.264,2c-0.176,0.464-0.517,0.786-1.022,0.96
		c-0.507,0.176-1.256,0.264-2.248,0.264h-1.736v1.644h3.101c0.909,0,1.612,0.098,2.107,0.294c0.496,0.197,0.842,0.543,1.039,1.039
		c0.196,0.496,0.294,1.209,0.294,2.139v8.184c0,1.013-0.145,1.818-0.434,2.418c-0.29,0.6-0.821,1.013-1.597,1.24
		c-0.774,0.228-1.886,0.3-3.332,0.217l-0.744-0.062c-0.352,0-0.656-0.182-0.915-0.543c-0.258-0.361-0.434-0.78-0.526-1.255
		c-0.093-0.476-0.089-0.889,0.016-1.24c0.103-0.352,0.33-0.506,0.682-0.465l0.62,0.062c0.868,0.104,1.498,0.108,1.891,0.016
		s0.641-0.264,0.744-0.512s0.155-0.537,0.155-0.867v-0.342c-0.29,0.248-0.573,0.414-0.853,0.496
		C93.453,28.821,93.21,28.749,93.004,28.521z M75.706,22.476l0.589,0.558c0.351-1.012,0.646-2.18,0.884-3.503
		c0.237-1.322,0.429-2.8,0.573-4.433c0.041-0.393,0.036-0.62-0.016-0.682s-0.274-0.093-0.667-0.093h-0.65
		c-0.166,1.302-0.352,2.552-0.559,3.75c-0.206,1.199-0.393,2.232-0.558,3.101c-0.083,0.352-0.104,0.584-0.062,0.697
		C75.282,21.986,75.437,22.187,75.706,22.476z M84.789,22.167v4.029c0.888-0.682,1.575-1.379,2.062-2.092
		c0.485-0.714,0.821-1.617,1.007-2.713h-2.294c-0.393,0-0.62,0.031-0.682,0.093C84.82,21.547,84.789,21.774,84.789,22.167z
		 M86.215,10.789v1.488c0,0.393,0.031,0.62,0.093,0.682c0.063,0.062,0.289,0.093,0.683,0.093h5.456c0.392,0,0.619-0.031,0.682-0.093
		c0.062-0.062,0.093-0.289,0.093-0.682v-1.488c0-0.392-0.031-0.62-0.093-0.682c-0.063-0.062-0.29-0.093-0.682-0.093H86.99
		c-0.394,0-0.62,0.031-0.683,0.093C86.246,10.169,86.215,10.397,86.215,10.789z M93.81,21.391h-2.511l-0.093,0.713
		c0.62,0.517,1.219,1.028,1.798,1.534c0.578,0.507,1.105,0.987,1.581,1.442v-2.914c0-0.393-0.031-0.62-0.093-0.683
		C94.43,21.423,94.202,21.391,93.81,21.391z"/>
	<path fill="#33AD37" d="M115.541,19.842h-4.898c-0.393,1.033-1.054,1.964-1.983,2.79h0.124h5.114v-1.023
		c0-0.372,0.187-0.655,0.559-0.853c0.372-0.196,0.811-0.294,1.317-0.294c0.506,0,0.945,0.082,1.317,0.248v-10.23
		c0-0.888,0.098-1.57,0.295-2.046c0.195-0.475,0.552-0.811,1.069-1.007c0.516-0.196,1.26-0.295,2.231-0.295h6.169
		c0.661,0,1.152,0.155,1.473,0.465s0.517,0.682,0.589,1.116c0.072,0.434,0.047,0.853-0.077,1.256
		c-0.124,0.403-0.32,0.697-0.589,0.883c-0.104,0.083-0.284,0.284-0.543,0.604c-0.259,0.321-0.526,0.656-0.806,1.007
		c-0.279,0.352-0.491,0.631-0.636,0.837c0.909,0.538,1.576,1.059,2,1.565c0.423,0.507,0.697,0.981,0.821,1.426
		s0.186,0.873,0.186,1.286c0,0.766-0.165,1.416-0.496,1.953c-0.33,0.538-0.93,0.936-1.798,1.193
		c-0.868,0.259-2.107,0.347-3.72,0.264l-0.93-0.03c-0.352-0.021-0.646-0.207-0.884-0.559c-0.238-0.351-0.393-0.754-0.465-1.209
		c-0.073-0.454-0.058-0.842,0.046-1.162s0.32-0.46,0.651-0.419l0.744,0.063c0.971,0.104,1.663,0.124,2.077,0.062
		c0.413-0.062,0.666-0.19,0.76-0.388c0.093-0.195,0.139-0.429,0.139-0.697c0-0.33-0.196-0.708-0.589-1.132
		c-0.393-0.423-0.898-0.779-1.519-1.069c-0.29-0.145-0.476-0.398-0.559-0.76c-0.082-0.361-0.021-0.667,0.187-0.915
		c0.227-0.289,0.521-0.646,0.884-1.069c0.361-0.423,0.748-0.832,1.162-1.225h-3.503c-0.393,0-0.62,0.031-0.682,0.093
		c-0.063,0.062-0.094,0.29-0.094,0.682v9.672c0,0.331-0.17,0.589-0.511,0.774c-0.342,0.187-0.739,0.285-1.194,0.295
		c-0.454,0.011-0.857-0.057-1.209-0.201v0.837h5.363c1.033,0,1.834,0.098,2.402,0.294c0.568,0.197,0.961,0.532,1.179,1.008
		c0.217,0.476,0.325,1.157,0.325,2.046v2.542c0,0.972-0.16,1.747-0.48,2.325c-0.321,0.578-0.91,0.981-1.768,1.209
		s-2.092,0.299-3.704,0.217l-0.93-0.062c-0.331,0-0.615-0.176-0.853-0.527c-0.238-0.352-0.394-0.755-0.465-1.209
		c-0.073-0.454-0.058-0.853,0.046-1.193s0.33-0.491,0.683-0.449l0.619,0.062c0.889,0.104,1.54,0.129,1.953,0.077
		c0.413-0.051,0.683-0.149,0.807-0.294s0.186-0.289,0.186-0.435v-1.487c0-0.393-0.031-0.62-0.093-0.683
		c-0.063-0.062-0.29-0.093-0.683-0.093h-4.588v6.728c0,0.392-0.196,0.682-0.589,0.867c-0.393,0.187-0.842,0.269-1.349,0.248
		c-0.506-0.021-0.956-0.135-1.349-0.341c-0.393-0.207-0.589-0.496-0.589-0.868v-6.634h-4.34c-0.393,0-0.62,0.031-0.682,0.093
		c-0.063,0.063-0.093,0.29-0.093,0.683v4.712c0,0.393-0.197,0.687-0.59,0.883s-0.852,0.295-1.379,0.295s-0.987-0.099-1.38-0.295
		s-0.589-0.49-0.589-0.883v-5.487c0-0.145,0-0.284,0-0.418c0-0.135,0.011-0.264,0.031-0.388l-0.559,0.278
		c-0.31,0.166-0.65,0.14-1.022-0.077s-0.697-0.517-0.977-0.898c-0.279-0.383-0.444-0.76-0.496-1.132s0.077-0.63,0.388-0.775
		c1.054-0.496,1.911-0.95,2.573-1.363c0.661-0.414,1.198-0.868,1.611-1.364h-3.627c-0.31,0-0.542-0.16-0.697-0.48
		s-0.232-0.692-0.232-1.116s0.077-0.795,0.232-1.116c0.155-0.32,0.388-0.48,0.697-0.48h4.712c0.021-0.165,0.036-0.346,0.047-0.542
		c0.01-0.196,0.016-0.398,0.016-0.604h-3.689c-0.289,0-0.507-0.155-0.65-0.465c-0.146-0.31-0.218-0.667-0.218-1.069
		c0-0.403,0.072-0.76,0.218-1.07c0.144-0.31,0.361-0.465,0.65-0.465h3.721v-1.147h-4.278c-0.311,0-0.543-0.155-0.697-0.465
		c-0.155-0.31-0.232-0.671-0.232-1.085c0-0.413,0.077-0.775,0.232-1.085c0.154-0.31,0.387-0.465,0.697-0.465h4.278V7.008
		c0-0.393,0.195-0.682,0.589-0.868c0.392-0.186,0.847-0.279,1.363-0.279s0.972,0.093,1.364,0.279s0.589,0.476,0.589,0.868v1.178
		h3.969c0.31,0,0.542,0.155,0.697,0.465c0.155,0.31,0.232,0.672,0.232,1.085c0,0.414-0.077,0.775-0.232,1.085
		c-0.155,0.31-0.388,0.465-0.697,0.465h-3.969v1.147h3.473c0.289,0,0.506,0.155,0.65,0.465s0.217,0.667,0.217,1.07
		c0,0.403-0.072,0.759-0.217,1.069s-0.361,0.465-0.65,0.465h-3.503l-0.094,1.146h4.186c0.31,0,0.542,0.16,0.697,0.48
		c0.155,0.321,0.232,0.692,0.232,1.116s-0.077,0.796-0.232,1.116S115.851,19.842,115.541,19.842z"/>
</g>
</svg>
