<?xml version="1.0" encoding="utf-8"?>
<!-- Generator: Adobe Illustrator 16.0.0, SVG Export Plug-In . SVG Version: 6.00 Build 0)  -->
<!DOCTYPE svg PUBLIC "-//W3C//DTD SVG 1.1//EN" "http://www.w3.org/Graphics/SVG/1.1/DTD/svg11.dtd">
<svg version="1.1" id="图层_1" xmlns="http://www.w3.org/2000/svg" xmlns:xlink="http://www.w3.org/1999/xlink" x="0px" y="0px"
	 width="131.686px" height="38.531px" viewBox="257.64 355.431 131.686 38.531"
	 enable-background="new 257.64 355.431 131.686 38.531" xml:space="preserve">
<g>
	<g>
		<path fill="#33AD37" d="M328.652,373.884h-3.361c-0.52,2.101-1.1,3.921-1.74,5.461s-1.449,2.909-2.43,4.109
			c1.24,0.642,2.461,1.275,3.66,1.905s2.34,1.234,3.42,1.814c0.357,0.16,0.555,0.436,0.586,0.825
			c0.029,0.391-0.051,0.814-0.24,1.275c-0.191,0.46-0.451,0.88-0.781,1.26s-0.689,0.65-1.08,0.811
			c-0.389,0.159-0.754,0.13-1.094-0.091c-1.24-0.739-2.564-1.505-3.975-2.295s-2.797-1.555-4.156-2.295
			c-1.42,0.9-3.105,1.729-5.055,2.49c-1.949,0.76-4.285,1.54-7.004,2.34c-0.361,0.12-0.723,0.07-1.08-0.15
			c-0.361-0.22-0.684-0.534-0.961-0.944c-0.279-0.41-0.49-0.84-0.631-1.29s-0.172-0.852-0.092-1.2s0.313-0.575,0.691-0.675
			c1.959-0.48,3.699-0.976,5.219-1.485c1.521-0.51,2.881-1.064,4.08-1.665l-2.43-1.2c-1.199-0.54-2.074-1.084-2.625-1.635
			c-0.551-0.55-0.805-1.21-0.766-1.979c0.041-0.771,0.34-1.745,0.9-2.926c0.199-0.438,0.395-0.858,0.586-1.26
			c0.189-0.399,0.363-0.8,0.525-1.2h-4.98c-0.34,0-0.615-0.145-0.826-0.435c-0.209-0.29-0.35-0.655-0.42-1.095
			c-0.07-0.44-0.074-0.88-0.014-1.32c0.059-0.439,0.195-0.805,0.404-1.095c0.211-0.29,0.492-0.436,0.854-0.436h6.602
			c0.479-1.42,0.891-2.939,1.229-4.56c0.08-0.36,0.299-0.63,0.66-0.811c0.359-0.18,0.779-0.279,1.26-0.3
			c0.482-0.02,0.945,0.035,1.396,0.165c0.447,0.13,0.805,0.32,1.063,0.57c0.26,0.25,0.34,0.555,0.24,0.915
			c-0.16,0.6-0.334,1.245-0.525,1.935c-0.188,0.69-0.395,1.386-0.611,2.085h13.5c0.357,0,0.645,0.146,0.854,0.436
			c0.211,0.29,0.346,0.654,0.406,1.095c0.059,0.44,0.055,0.88-0.016,1.32c-0.072,0.439-0.213,0.805-0.422,1.095
			C329.265,373.739,328.992,373.884,328.652,373.884z M312.361,379.224c0.58,0.26,1.232,0.564,1.965,0.915
			c0.729,0.35,1.516,0.725,2.354,1.125c0.939-0.939,1.721-2.006,2.34-3.195s1.16-2.584,1.619-4.186h-6.959
			c-0.318,0.9-0.631,1.73-0.93,2.49c-0.301,0.76-0.561,1.391-0.781,1.891c-0.16,0.34-0.219,0.545-0.18,0.614
			C311.832,378.949,312.021,379.064,312.361,379.224z"/>
		<path fill="#33AD37" d="M354.361,386.214c-0.342-0.38-0.73-0.795-1.17-1.244c-0.439-0.45-0.893-0.896-1.352-1.336
			c-0.398,0.66-0.875,1.275-1.426,1.846c-0.551,0.569-1.205,1.154-1.965,1.755c-0.221,0.16-0.465,0.215-0.734,0.165
			s-0.535-0.175-0.795-0.375v3.24c0,0.359-0.186,0.63-0.555,0.81c-0.371,0.18-0.807,0.271-1.307,0.271s-0.934-0.091-1.305-0.271
			c-0.369-0.18-0.555-0.45-0.555-0.81v-2.101c-0.32,0.319-0.654,0.54-1.004,0.66c-0.354,0.12-0.646,0.05-0.889-0.21l-1.799-1.83
			c-0.461,0.641-0.979,1.29-1.561,1.95c-0.58,0.66-1.23,1.36-1.949,2.1c-0.221,0.24-0.496,0.33-0.826,0.271
			c-0.33-0.061-0.654-0.215-0.975-0.465s-0.596-0.545-0.824-0.886c-0.23-0.34-0.371-0.675-0.42-1.005
			c-0.051-0.33,0.045-0.604,0.285-0.825c0.699-0.619,1.344-1.244,1.934-1.875c0.59-0.63,1.115-1.305,1.576-2.024l-1.32-1.23
			c-0.461-0.42-0.813-0.765-1.063-1.035c-0.252-0.27-0.406-0.574-0.465-0.914c-0.063-0.341-0.049-0.801,0.045-1.381
			c0.09-0.58,0.232-1.38,0.434-2.399c0.16-0.76,0.301-1.495,0.42-2.205c0.121-0.71,0.23-1.425,0.33-2.146h-0.719
			c-0.4,0-0.695-0.199-0.885-0.6c-0.191-0.4-0.285-0.859-0.285-1.38s0.094-0.979,0.285-1.38c0.188-0.4,0.482-0.601,0.885-0.601h1.17
			c0.059-0.58,0.119-1.175,0.18-1.784c0.061-0.61,0.109-1.234,0.15-1.875c0.02-0.38,0.225-0.66,0.615-0.841
			c0.389-0.18,0.826-0.26,1.316-0.239s0.92,0.13,1.291,0.33c0.369,0.199,0.545,0.489,0.525,0.869
			c-0.041,0.521-0.086,1.08-0.135,1.681c-0.051,0.6-0.117,1.22-0.195,1.859h1.859c0.779,0,1.346,0.17,1.695,0.511
			c0.35,0.34,0.564,0.771,0.645,1.29c0.08,0.521,0.096,1.045,0.045,1.574c-0.051,0.53-0.096,0.985-0.135,1.365
			c-0.199,2.021-0.43,3.8-0.689,5.34c-0.258,1.54-0.67,2.99-1.23,4.351l1.682,1.56v-5.28c0-1,0.1-1.774,0.301-2.324
			c0.199-0.551,0.57-0.931,1.107-1.141c0.541-0.21,1.313-0.314,2.313-0.314h2.699v-1.141h-1.32c-1.039,0-1.84-0.095-2.398-0.285
			c-0.561-0.189-0.951-0.544-1.172-1.064c-0.219-0.521-0.328-1.25-0.328-2.19v-2.46c0-0.939,0.109-1.665,0.328-2.175
			c0.221-0.51,0.611-0.865,1.172-1.064c0.559-0.2,1.359-0.301,2.398-0.301h6.24c1.041,0,1.84,0.101,2.398,0.301
			c0.563,0.199,0.949,0.555,1.17,1.064c0.223,0.51,0.33,1.235,0.33,2.175v2.46c0,0.94-0.1,1.67-0.301,2.19
			c-0.199,0.521-0.58,0.875-1.139,1.064c-0.561,0.19-1.381,0.285-2.461,0.285h-1.199v1.141h2.52c1,0,1.775,0.104,2.324,0.314
			c0.551,0.21,0.934,0.59,1.143,1.141c0.211,0.55,0.313,1.324,0.313,2.324v7.71c0,1-0.145,1.801-0.434,2.4
			c-0.291,0.6-0.816,1.015-1.576,1.245c-0.76,0.229-1.859,0.305-3.299,0.225l-0.631-0.029c-0.4-0.021-0.74-0.235-1.02-0.646
			c-0.281-0.41-0.475-0.87-0.586-1.38c-0.109-0.51-0.104-0.95,0.016-1.32s0.369-0.524,0.75-0.465l0.449,0.03
			c0.82,0.12,1.41,0.13,1.771,0.03c0.357-0.101,0.58-0.256,0.66-0.466c0.076-0.21,0.117-0.444,0.117-0.704
			c-0.277,0.22-0.551,0.35-0.811,0.39S354.56,386.434,354.361,386.214z M338.191,380.214l0.211,0.21c0.6-1.819,1.02-4.14,1.26-6.96
			c0.039-0.38,0.033-0.6-0.016-0.659c-0.053-0.061-0.268-0.091-0.646-0.091h-0.18c-0.162,1.2-0.33,2.341-0.512,3.42
			c-0.18,1.08-0.35,2.021-0.51,2.82c-0.08,0.34-0.104,0.565-0.074,0.675C337.753,379.739,337.91,379.934,338.191,380.214z
			 M346.921,380.214v3.181c0.68-0.561,1.215-1.136,1.605-1.726c0.389-0.59,0.664-1.325,0.822-2.205h-1.68
			c-0.381,0-0.6,0.03-0.66,0.091C346.951,379.614,346.921,379.834,346.921,380.214z M348.3,369.294v0.96
			c0,0.38,0.031,0.601,0.09,0.66c0.061,0.061,0.281,0.09,0.66,0.09h4.74c0.381,0,0.6-0.029,0.66-0.09
			c0.061-0.06,0.09-0.28,0.09-0.66v-0.96c0-0.38-0.029-0.6-0.09-0.66c-0.063-0.06-0.279-0.09-0.66-0.09h-4.74
			c-0.379,0-0.6,0.03-0.66,0.09C348.332,368.694,348.3,368.914,348.3,369.294z M355.111,379.464h-1.949l-0.063,0.36
			c0.42,0.34,0.875,0.72,1.365,1.14s0.955,0.83,1.396,1.23v-1.98c0-0.38-0.029-0.6-0.092-0.659
			C355.708,379.494,355.49,379.464,355.111,379.464z"/>
		<path fill="#33AD37" d="M376.082,377.904h-4.41c-0.4,0.9-0.93,1.65-1.59,2.25h4.35v-0.66c0-0.36,0.174-0.64,0.525-0.84
			c0.35-0.2,0.764-0.32,1.244-0.36c0.479-0.04,0.93-0.01,1.35,0.09v-9.449c0-0.96,0.105-1.705,0.316-2.235
			c0.209-0.53,0.604-0.9,1.184-1.11s1.4-0.314,2.461-0.314h5.609c0.721,0,1.26,0.17,1.621,0.51c0.357,0.34,0.584,0.75,0.674,1.23
			c0.09,0.479,0.061,0.939-0.09,1.38c-0.152,0.439-0.375,0.75-0.674,0.93c-0.223,0.14-0.514,0.425-0.871,0.855
			c-0.359,0.431-0.67,0.824-0.932,1.185c0.881,0.56,1.525,1.085,1.938,1.575c0.408,0.49,0.67,0.955,0.779,1.395
			c0.107,0.44,0.164,0.86,0.164,1.261c0,0.76-0.164,1.409-0.494,1.949s-0.928,0.94-1.785,1.2c-0.859,0.26-2.08,0.352-3.66,0.271
			l-0.811-0.03c-0.381-0.021-0.699-0.229-0.961-0.63c-0.26-0.4-0.43-0.83-0.51-1.29v1.59c0,0.36-0.148,0.63-0.451,0.81
			c-0.299,0.181-0.67,0.29-1.107,0.33c-0.439,0.04-0.859,0.021-1.26-0.06v0.42h4.617c1.121,0,1.99,0.105,2.611,0.315
			c0.619,0.21,1.049,0.581,1.289,1.109c0.24,0.53,0.361,1.275,0.361,2.235v2.22c0,1-0.162,1.791-0.48,2.37
			c-0.32,0.58-0.906,0.985-1.756,1.215c-0.85,0.23-2.064,0.305-3.645,0.226l-0.84-0.061c-0.301,0-0.566-0.13-0.795-0.39
			c-0.23-0.261-0.404-0.581-0.525-0.96c-0.119-0.38-0.186-0.755-0.195-1.125c-0.008-0.37,0.055-0.67,0.195-0.9
			c0.141-0.229,0.359-0.325,0.66-0.285l0.449,0.03c0.82,0.12,1.42,0.16,1.801,0.12c0.379-0.04,0.619-0.115,0.721-0.226
			c0.1-0.109,0.148-0.215,0.148-0.314v-1.17c0-0.38-0.029-0.601-0.09-0.66c-0.059-0.06-0.279-0.09-0.66-0.09h-3.869v6.149
			c0,0.341-0.145,0.604-0.436,0.795c-0.289,0.19-0.645,0.315-1.064,0.375c-0.42,0.061-0.84,0.051-1.26-0.029
			s-0.775-0.226-1.064-0.436c-0.291-0.21-0.436-0.484-0.436-0.824v-6.03H370.8c-0.379,0-0.6,0.03-0.66,0.09
			c-0.059,0.06-0.09,0.28-0.09,0.66v4.38c0,0.34-0.145,0.61-0.434,0.81c-0.291,0.2-0.65,0.334-1.08,0.405
			c-0.432,0.07-0.861,0.07-1.291,0s-0.789-0.205-1.08-0.405c-0.289-0.199-0.436-0.47-0.436-0.81v-5.13c0-0.141,0-0.271,0-0.391
			c0-0.119,0.012-0.239,0.029-0.359c-0.041,0.02-0.08,0.04-0.121,0.06c-0.357,0.181-0.738,0.155-1.139-0.075
			c-0.4-0.229-0.756-0.55-1.066-0.96c-0.309-0.409-0.488-0.819-0.537-1.229c-0.053-0.41,0.104-0.705,0.465-0.885
			c0.818-0.379,1.51-0.729,2.068-1.051c0.561-0.319,1.029-0.659,1.41-1.02h-2.76c-0.342,0-0.596-0.175-0.766-0.525
			c-0.17-0.35-0.256-0.755-0.256-1.215s0.086-0.865,0.256-1.215s0.424-0.525,0.766-0.525h4.199c0-0.1,0.004-0.21,0.016-0.329
			c0.01-0.12,0.014-0.24,0.014-0.36h-3.18c-0.34,0-0.59-0.17-0.75-0.51s-0.24-0.729-0.24-1.17c0-0.439,0.08-0.83,0.24-1.171
			c0.16-0.34,0.41-0.51,0.75-0.51h3.211v-0.689h-3.781c-0.316,0-0.563-0.17-0.732-0.511c-0.17-0.34-0.254-0.734-0.254-1.185
			s0.084-0.845,0.254-1.185c0.17-0.341,0.416-0.511,0.732-0.511h3.781v-0.84c0-0.34,0.146-0.608,0.438-0.81
			c0.289-0.2,0.645-0.335,1.063-0.405c0.42-0.07,0.84-0.07,1.26,0c0.422,0.07,0.775,0.206,1.064,0.405
			c0.291,0.2,0.436,0.47,0.436,0.81v0.84h3.48c0.318,0,0.564,0.17,0.734,0.511c0.17,0.34,0.256,0.734,0.256,1.185
			s-0.086,0.845-0.256,1.185c-0.17,0.341-0.416,0.511-0.734,0.511h-3.48v0.689h2.973c0.34,0,0.588,0.17,0.75,0.51
			c0.158,0.341,0.236,0.73,0.236,1.171c0,0.439-0.078,0.829-0.236,1.17c-0.162,0.34-0.41,0.51-0.75,0.51h-3
			c-0.021,0.12-0.035,0.24-0.045,0.36c-0.014,0.119-0.018,0.229-0.018,0.329h3.57c0.34,0,0.594,0.176,0.764,0.525
			s0.256,0.755,0.256,1.215s-0.086,0.865-0.256,1.215C376.675,377.729,376.421,377.904,376.082,377.904z M381.511,369.684v6.3
			c0.1-0.48,0.359-0.7,0.779-0.66l0.541,0.06c0.879,0.102,1.504,0.125,1.875,0.075c0.369-0.05,0.59-0.154,0.66-0.314
			c0.066-0.16,0.104-0.351,0.104-0.57c0-0.3-0.189-0.649-0.568-1.05c-0.381-0.4-0.891-0.74-1.531-1.021
			c-0.199-0.08-0.334-0.305-0.404-0.675c-0.068-0.37-0.045-0.634,0.074-0.795c0.221-0.26,0.49-0.56,0.811-0.9
			c0.32-0.34,0.73-0.739,1.23-1.199h-2.82c-0.381,0-0.6,0.029-0.66,0.09C381.542,369.084,381.511,369.304,381.511,369.684z"/>
	</g>
	<path fill="#33AD37" d="M289.636,381.413c-0.107,0-0.191,0-0.279,0c-1.01,0-2.02-0.031-3.027,0.015
		c-0.461,0.021-0.682-0.215-0.875-0.54c-0.303-0.512-0.586-1.033-0.881-1.549c-0.41-0.722-0.822-1.443-1.24-2.164
		c-0.064-0.11-0.158-0.198-0.195-0.334c-0.033-0.124-0.113-0.03-0.145,0.018c-0.123,0.189-0.252,0.38-0.355,0.582
		c-0.193,0.388-0.432,0.749-0.648,1.123c-0.146,0.251-0.289,0.503-0.434,0.756c-0.209,0.367-0.41,0.74-0.631,1.102
		c-0.131,0.213-0.258,0.427-0.373,0.649c-0.104,0.203-0.236,0.353-0.516,0.351c-1.668-0.013-3.334-0.012-5,0
		c-0.24,0.002-0.389-0.111-0.467-0.279c-0.188-0.399-0.426-0.771-0.641-1.153c-0.182-0.32-0.369-0.638-0.555-0.957
		c-0.242-0.412-0.48-0.826-0.721-1.238c-0.203-0.348-0.404-0.694-0.611-1.053c-0.127,0.045-0.111,0.19-0.17,0.286
		c-0.371,0.603-0.725,1.213-1.068,1.832c-0.4,0.716-0.844,1.408-1.229,2.131c-0.178,0.332-0.402,0.434-0.758,0.431
		c-1.408-0.015-2.816-0.005-4.227-0.006c-0.291,0-0.422-0.17-0.465-0.452c-0.061-0.422,0.18-0.72,0.359-1.042
		c0.277-0.497,0.561-0.988,0.844-1.48c0.152-0.268,0.342-0.521,0.479-0.797c0.137-0.278,0.316-0.528,0.457-0.803
		c0.137-0.265,0.316-0.506,0.451-0.772c0.266-0.527,0.584-1.024,0.875-1.537c0.174-0.307,0.373-0.606,0.557-0.911
		c0.234-0.39,0.439-0.796,0.674-1.186c0.205-0.345,0.42-0.685,0.613-1.034c0.303-0.539,0.617-1.071,0.916-1.612
		c0.361-0.656,0.756-1.294,1.133-1.94c0.18-0.306,0.479-0.243,0.752-0.231c0.189,0.008,0.258,0.177,0.357,0.316
		c0.334,0.475,0.568,1.009,0.885,1.497c0.232,0.361,0.414,0.757,0.631,1.131c0.207,0.361,0.443,0.706,0.637,1.073
		c0.207,0.396,0.473,0.758,0.666,1.162c0.188,0.391,0.434,0.751,0.654,1.124c0.24,0.404,0.484,0.807,0.727,1.21
		c0.25,0.416,0.496,0.833,0.756,1.271c0.34-0.585,0.658-1.163,1.004-1.722c0.223-0.361,0.473-0.706,0.66-1.087
		c0.201-0.409,0.463-0.787,0.674-1.194c0.184-0.348,0.408-0.68,0.605-1.021c0.205-0.361,0.416-0.721,0.635-1.076
		c0.238-0.385,0.426-0.802,0.672-1.182c0.289-0.444,0.463-0.958,0.84-1.345c0.285-0.289,0.779-0.227,0.984,0.122
		c0.309,0.521,0.623,1.039,0.926,1.564c0.355,0.62,0.682,1.257,1.057,1.865c0.305,0.498,0.602,1.004,0.895,1.507
		c0.281,0.482,0.559,0.97,0.832,1.457c0.313,0.563,0.645,1.114,0.973,1.669c0.307,0.522,0.6,1.055,0.928,1.564
		c0.07,0.108,0.148,0.088,0.234,0.088c1.174,0.002,2.348,0.001,3.521,0.001c0.813,0,1.627,0,2.439,0c0.289,0,0.445,0.167,0.451,0.46
		c0.008,0.443-0.084,0.868-0.186,1.297c-0.123,0.526-0.305,1.036-0.436,1.561c-0.053,0.209-0.143,0.417-0.229,0.619
		c-0.246,0.597-0.48,1.2-0.773,1.774c-0.189,0.376-0.391,0.751-0.609,1.116c-0.283,0.475-0.602,0.929-0.881,1.407
		c-0.096,0.161-0.238,0.298-0.35,0.456c-0.414,0.596-0.939,1.097-1.422,1.634c-0.35,0.389-0.738,0.731-1.117,1.087
		c-0.408,0.385-0.832,0.753-1.283,1.094c-0.633,0.476-1.285,0.916-1.963,1.319c-0.455,0.271-0.922,0.517-1.404,0.743
		c-0.643,0.301-1.293,0.573-1.965,0.805c-0.584,0.201-1.176,0.364-1.779,0.506c-0.717,0.17-1.439,0.276-2.17,0.381
		c-0.869,0.125-1.738,0.059-2.611,0.081c-0.43,0.012-0.859,0.02-1.289-0.001c-0.77-0.035-1.529-0.144-2.285-0.286
		c-0.799-0.148-1.578-0.355-2.346-0.602c-0.576-0.185-1.137-0.401-1.686-0.647c-0.354-0.159-0.719-0.297-1.053-0.488
		c-0.502-0.285-1.012-0.559-1.494-0.88c-0.344-0.229-0.695-0.448-1.021-0.701c-0.406-0.315-0.838-0.6-1.205-0.968
		c-0.309-0.307-0.65-0.576-0.961-0.878c-0.291-0.282-0.559-0.586-0.84-0.879c-0.279-0.294-0.574-0.578-0.813-0.909
		c-0.443-0.616-0.895-1.228-1.295-1.875c-0.398-0.64-0.76-1.298-1.08-1.975c-0.236-0.497-0.447-1.012-0.627-1.538
		c-0.186-0.541-0.361-1.083-0.498-1.635c-0.182-0.727-0.314-1.461-0.426-2.205c-0.229-1.531-0.115-3.066-0.107-4.597
		c0.004-0.674,0.131-1.356,0.27-2.027c0.084-0.404,0.18-0.805,0.279-1.203c0.176-0.686,0.391-1.358,0.65-2.018
		c0.211-0.53,0.43-1.057,0.686-1.563c0.191-0.375,0.391-0.751,0.609-1.116c0.285-0.475,0.602-0.929,0.881-1.405
		c0.098-0.162,0.24-0.299,0.352-0.457c0.434-0.621,0.98-1.143,1.488-1.697c0.518-0.563,1.094-1.061,1.65-1.575
		c0.42-0.388,0.898-0.714,1.371-1.045c0.42-0.295,0.852-0.57,1.293-0.83c0.443-0.262,0.9-0.5,1.369-0.722
		c0.654-0.311,1.322-0.585,2.006-0.822c0.555-0.192,1.119-0.355,1.691-0.486c0.738-0.169,1.484-0.294,2.238-0.385
		c1.4-0.171,2.807-0.086,4.207-0.064c0.67,0.011,1.352,0.149,2.023,0.281c0.797,0.155,1.572,0.372,2.35,0.597
		c0.545,0.157,1.072,0.381,1.59,0.616c0.504,0.23,1.008,0.468,1.494,0.736c0.572,0.316,1.123,0.673,1.668,1.042
		c0.887,0.603,1.691,1.291,2.455,2.038c0.635,0.621,1.275,1.236,1.822,1.935c0.459,0.586,0.906,1.186,1.27,1.839
		c0.164,0.29,0.395,0.548,0.525,0.85c0.195,0.445,0.449,0.859,0.633,1.31c0.141,0.345,0.283,0.689,0.438,1.028
		c0.117,0.263,0.063,0.614-0.141,0.782c-0.176,0.146-0.389,0.072-0.582,0.056c-0.088-0.007-0.182-0.027-0.273-0.027
		c-1.057-0.002-2.111,0-3.168-0.003c-0.219,0-0.43,0.063-0.648,0.053c-0.217-0.01-0.338-0.146-0.391-0.309
		c-0.115-0.368-0.328-0.681-0.512-1.01c-0.207-0.375-0.439-0.741-0.703-1.078c-0.291-0.373-0.537-0.784-0.9-1.1
		c-0.191-0.168-0.293-0.407-0.482-0.585c-0.912-0.866-1.9-1.628-2.99-2.265c-0.439-0.258-0.889-0.501-1.354-0.705
		c-0.365-0.16-0.74-0.303-1.113-0.446c-0.318-0.124-0.648-0.221-0.971-0.333c-0.422-0.148-0.875-0.198-1.313-0.299
		c-0.451-0.104-0.914-0.124-1.369-0.187c-0.439-0.061-0.877-0.115-1.318-0.091c-0.547,0.03-1.088,0.112-1.631,0.167
		c-0.484,0.049-0.953,0.158-1.422,0.26c-0.549,0.119-1.08,0.303-1.613,0.487c-1.174,0.408-2.254,0.98-3.285,1.661
		c-0.586,0.386-1.129,0.822-1.656,1.283c-0.201,0.174-0.408,0.342-0.576,0.543c-0.342,0.408-0.703,0.801-1.031,1.224
		c-0.305,0.391-0.58,0.802-0.838,1.219c-0.301,0.485-0.588,0.982-0.818,1.515c-0.146,0.339-0.309,0.677-0.447,1.021
		c-0.197,0.486-0.342,0.989-0.486,1.494c-0.137,0.464-0.199,0.939-0.322,1.404c-0.08,0.298-0.08,0.607-0.121,0.91
		c-0.068,0.489-0.137,0.985-0.102,1.481c0.035,0.521,0.104,1.041,0.16,1.56c0.061,0.562,0.184,1.104,0.311,1.646
		c0.186,0.793,0.465,1.558,0.785,2.31c0.232,0.552,0.496,1.089,0.801,1.6c0.459,0.771,0.969,1.512,1.551,2.198
		c0.563,0.657,1.182,1.243,1.865,1.774c0.627,0.486,1.281,0.922,1.963,1.32c0.416,0.244,0.865,0.434,1.301,0.643
		c0.609,0.291,1.24,0.511,1.879,0.696c0.656,0.19,1.326,0.36,2.02,0.416c0.488,0.04,0.975,0.131,1.463,0.178
		c0.475,0.045,0.947-0.021,1.42-0.059c0.283-0.021,0.563-0.106,0.842-0.116c0.297-0.011,0.574-0.099,0.861-0.145
		c0.592-0.092,1.16-0.264,1.725-0.444c0.576-0.187,1.133-0.433,1.686-0.684c0.938-0.424,1.805-0.965,2.625-1.571
		c0.613-0.454,1.221-0.934,1.725-1.517c0.385-0.443,0.783-0.882,1.111-1.365C288.896,382.703,289.332,382.119,289.636,381.413z"/>
</g>
</svg>
